# xmcd
#
# Track frame offsets:
#	150
#	16929
#	36143
#	62647
#	87856
#	111012
#	138200
#	159248
#	179309
#	198927
#	218843
#	242726
#
# Disc length: 3566 seconds
#
# Revision: 0
# Processed by: cddbd v1.5PL3 Copyright (c) Steve Scherf et al.
# Submitted via: dBpowerAMP V4.0
#
DISCID=940dec0c
DTITLE=Mary Chapin Carpenter - Between Here And Gone
DYEAR=2004
DGENRE=Country
TTITLE0=What Would You Say To Me
TTITLE1=Lunas Gone
TTITLE2=My Heaven
TTITLE3=Goodnight America
TTITLE4=Between here And Gone
TTITLE5=One Small Heart
TTITLE6=Beautiful Racket
TTITLE7=Girls Like Me
TTITLE8=River
TTITLE9=Grand Central Station
TTITLE10=Shelter Of Storms
TTITLE11=Elysium
EXTD=
EXTT0=
EXTT1=
EXTT2=
EXTT3=
EXTT4=
EXTT5=
EXTT6=
EXTT7=
EXTT8=
EXTT9=
EXTT10=
EXTT11=
PLAYORDER=
